<?xml version="1.0" encoding="UTF-8" standalone="no"?>
<!-- Created with Inkscape (http://www.inkscape.org/) -->

<svg
   width="367.59818mm"
   height="324.82266mm"
   viewBox="0 0 367.59818 324.82266"
   version="1.1"
   id="svg5"
   xmlns="http://www.w3.org/2000/svg"
   xmlns:svg="http://www.w3.org/2000/svg">
  <defs
     id="defs2" />
  <g
     id="layer1"
     transform="translate(27.488824,138.04344)">
    <path
       style="fill:#b7e0ff;fill-opacity:1;stroke-width:0.499999;stroke-linecap:square;stop-color:#000000"
       id="path950"
       d="m 82.173948,115.26915 -136.791194,0 68.395597,-118.4646532 z"
       transform="matrix(-0.37480194,0,0,-0.37480194,123.82594,117.25836)" />
    <path
       style="fill:#b7e0ff;fill-opacity:1;stroke-width:0.499999;stroke-linecap:square;stop-color:#000000"
       id="path952"
       d="m 82.173948,115.26915 -136.791194,0 68.395597,-118.4646532 z"
       transform="matrix(0.37480195,0,0,0.37480195,145.82772,86.943318)" />
    <path
       style="fill:#dce3ff;fill-opacity:1;stroke-width:0.499999;stroke-linecap:square;stop-color:#000000"
       id="path954"
       d="m 82.173948,115.26915 -136.791194,0 68.395597,-118.4646532 z"
       transform="matrix(0.37480194,0,0,0.37480194,87.86284,97.453331)" />
    <path
       style="fill:#b7e0ff;fill-opacity:1;stroke-width:0.499999;stroke-linecap:square;stop-color:#000000"
       id="path988"
       d="m 82.173948,115.26915 -136.791194,0 68.395597,-118.4646532 z"
       transform="matrix(-0.46989909,0,0,-0.46989909,182.91005,44.720483)" />
    <path
       style="fill:#b7e0ff;fill-opacity:1;stroke-width:0.499999;stroke-linecap:square;stop-color:#000000"
       id="path990"
       d="m 82.173948,115.26915 -136.791194,0 68.395597,-118.4646532 z"
       transform="matrix(0.4698991,0,0,0.4698991,210.49426,6.7137136)" />
    <path
       style="fill:#dce3ff;fill-opacity:1;stroke-width:0.499999;stroke-linecap:square;stop-color:#000000"
       id="path992"
       d="m 82.173948,115.26915 -136.791194,0 68.395597,-118.4646532 z"
       transform="matrix(0.46989909,0,0,0.46989909,137.82216,19.890394)" />
    <path
       style="fill:#b7e0ff;fill-opacity:1;stroke-width:0.499999;stroke-linecap:square;stop-color:#000000"
       id="path1002"
       d="m 82.173948,115.26915 -136.791194,0 68.395597,-118.4646532 z"
       transform="matrix(-0.59931742,0,0,-0.59931742,235.30101,100.61608)" />
    <path
       style="fill:#8181ff;fill-opacity:1;stroke-width:0.499999;stroke-linecap:square;stop-color:#000000"
       id="path1006"
       d="m 82.173948,115.26915 -136.791194,0 68.395597,-118.4646532 z"
       transform="matrix(0.59931742,0,0,0.59931742,177.79513,68.94736)" />
    <path
       style="fill:#8181ff;fill-opacity:1;stroke-width:0.499999;stroke-linecap:square;stop-color:#000000"
       id="path1010"
       d="m 82.173948,115.26915 -136.791194,0 68.395597,-118.4646532 z"
       transform="matrix(0.59931743,0,0,0.59931743,270.48238,52.141594)" />
    <path
       style="fill:#b7e0ff;fill-opacity:1;stroke-width:0.499999;stroke-linecap:square;stop-color:#000000"
       id="path1018"
       d="m 82.173948,115.26915 -136.791194,0 68.395597,-118.4646532 z"
       transform="matrix(0.45258213,0,0,0.45258213,302.91893,-34.092989)" />
    <path
       style="fill:#dce3ff;fill-opacity:1;stroke-width:0.499999;stroke-linecap:square;stop-color:#000000"
       id="path1020"
       d="m 82.173948,115.26915 -136.791194,0 68.395597,-118.4646532 z"
       transform="matrix(0.45258212,0,0,0.45258212,232.92498,-21.401903)" />
    <path
       style="fill:#8181ff;fill-opacity:1;stroke-width:0.499999;stroke-linecap:square;stop-color:#000000"
       id="path1022"
       d="m 82.173948,115.26915 -136.791194,0 68.395597,-118.4646532 z"
       transform="matrix(-0.45258212,0,0,-0.45258212,276.35127,2.5131346)" />
    <path
       style="fill:#8181ff;fill-opacity:1;stroke-width:0.499999;stroke-linecap:square;stop-color:#000000"
       id="path1034"
       d="m 82.173948,115.26915 -136.791194,0 68.395597,-118.4646532 z"
       transform="matrix(0.64954605,0,0,0.64954605,167.86606,-97.493678)" />
    <path
       style="fill:#b7e0ff;fill-opacity:1;stroke-width:0.499999;stroke-linecap:square;stop-color:#000000"
       id="path1036"
       d="m 82.173948,115.26915 -136.791194,0 68.395597,-118.4646532 z"
       transform="matrix(-0.64954605,0,0,-0.64954605,230.19149,-63.170806)" />
    <path
       style="fill:#dce3ff;fill-opacity:1;stroke-width:0.499999;stroke-linecap:square;stop-color:#000000"
       id="path1038"
       d="m 82.173948,115.26915 -136.791194,0 68.395597,-118.4646532 z"
       transform="matrix(0.64954607,0,0,0.64954607,268.32141,-115.70793)" />
    <path
       style="fill:#b7e0ff;fill-opacity:1;stroke-width:0.499999;stroke-linecap:square;stop-color:#000000"
       id="path1042"
       d="m 82.173948,115.26915 -136.791194,0 68.395597,-118.4646532 z"
       transform="matrix(0.5323661,0,0,0.5323661,1.587547,125.41384)" />
    <path
       style="fill:#b7e0ff;fill-opacity:1;stroke-width:0.499999;stroke-linecap:square;stop-color:#000000"
       id="path1046"
       d="m 82.173948,115.26915 -136.791194,0 68.395597,-118.4646532 z"
       transform="matrix(0.53236611,0,0,0.53236611,83.920463,110.48549)" />
    <path
       style="fill:#8181ff;fill-opacity:1;stroke-width:0.499999;stroke-linecap:square;stop-color:#000000"
       id="path1050"
       d="m 82.173948,115.26915 -136.791194,0 68.395597,-118.4646532 z"
       transform="matrix(-0.5323661,0,0,-0.5323661,52.669293,153.54477)" />
  </g>
</svg>
